<?xml version="1.0" encoding="utf-8"?>
<!-- Generator: Adobe Illustrator 18.1.1, SVG Export Plug-In . SVG Version: 6.00 Build 0)  -->
<!DOCTYPE svg PUBLIC "-//W3C//DTD SVG 1.1//EN" "http://www.w3.org/Graphics/SVG/1.1/DTD/svg11.dtd">
<svg version="1.1" id="Layer_1" xmlns="http://www.w3.org/2000/svg" xmlns:xlink="http://www.w3.org/1999/xlink" x="0px" y="0px"
	 viewBox="0 0 402 78" enable-background="new 0 0 402 78" xml:space="preserve">
<g id="petal_x2B_text">
	<g id="petal_x2B_text_1_">
		<g>
			<g>
				<path fill="#DDCD31" d="M1.7,38C-1.9,48.7,9.3,58.4,19,59.1c7.2,0.5,14.2-2.2,19.4-7.1c-2.2-0.1-4.4-0.6-6.6-1.5
					c-5.1-2.2-8.5-6.4-12.4-10.2C15.3,36.2,4.9,28.6,1.7,38z"/>
				<path fill="#7ED629" d="M38,75.2c10.7,3.6,20.4-7.6,21.1-17.3c0.5-7.2-2.2-14.2-7.1-19.4c-0.1,2.2-0.6,4.4-1.5,6.6
					c-2.2,5.1-6.4,8.5-10.2,12.4C36.2,61.6,28.6,72,38,75.2z"/>
				<path fill="#2390CC" d="M75.2,38.9c3.6-10.7-7.6-20.4-17.3-21.1c-7.2-0.5-14.2,2.2-19.4,7.1c2.2,0.1,4.4,0.6,6.6,1.5
					c5.1,2.2,8.5,6.4,12.4,10.2C61.6,40.6,72,48.2,75.2,38.9z"/>
				<path fill="#DD2A2A" d="M38.9,1.7C28.2-1.9,18.5,9.3,17.8,19c-0.5,7.2,2.2,14.2,7.1,19.4c0.1-2.2,0.6-4.4,1.5-6.6
					c2.2-5.1,6.4-8.5,10.2-12.4C40.6,15.3,48.2,4.9,38.9,1.7z"/>
			</g>
			<line fill="none" stroke="#CCCCCC" x1="92.4" y1="7" x2="92.4" y2="69.9"/>
			<g>
				<path fill="#2390CC" d="M138,46.6l3.4,1.8c-1.1,2.2-2.4,3.9-3.8,5.3c-1.5,1.3-3.1,2.4-4.9,3.1c-1.8,0.7-3.9,1-6.2,1
					c-5.1,0-9.1-1.7-11.9-5c-2.9-3.3-4.3-7.1-4.3-11.3c0-4,1.2-7.5,3.6-10.6c3.1-3.9,7.2-5.9,12.4-5.9c5.3,0,9.6,2,12.7,6
					c2.3,2.8,3.4,6.4,3.4,10.7h-28.1c0.1,3.6,1.2,6.6,3.5,8.9c2.2,2.3,5,3.5,8.3,3.5c1.6,0,3.1-0.3,4.6-0.8c1.5-0.6,2.8-1.3,3.8-2.2
					C135.7,50.1,136.8,48.7,138,46.6z M138,38.2c-0.5-2.1-1.3-3.9-2.3-5.1c-1-1.2-2.4-2.3-4.1-3.1c-1.7-0.8-3.5-1.2-5.3-1.2
					c-3.1,0-5.7,1-7.9,3c-1.6,1.4-2.8,3.6-3.6,6.5H138V38.2z"/>
				<path fill="#2390CC" d="M181,13.7V57h-4v-5.4c-1.7,2-3.6,3.6-5.7,4.6c-2.1,1-4.4,1.5-6.9,1.5c-4.4,0-8.2-1.6-11.3-4.8
					c-3.1-3.2-4.7-7.1-4.7-11.7c0-4.5,1.6-8.3,4.7-11.5c3.2-3.2,6.9-4.8,11.4-4.8c2.6,0,4.9,0.5,7,1.6s3.9,2.7,5.5,4.9V13.7H181z
					 M165,28.8c-2.2,0-4.3,0.5-6.2,1.6c-1.9,1.1-3.4,2.6-4.5,4.6c-1.1,2-1.7,4.1-1.7,6.3s0.6,4.3,1.7,6.3c1.1,2,2.6,3.6,4.5,4.7
					s3.9,1.7,6.1,1.7c2.2,0,4.3-0.6,6.2-1.7c2-1.1,3.5-2.6,4.5-4.5c1.1-1.9,1.6-4,1.6-6.4c0-3.6-1.2-6.6-3.6-9
					C171.4,30.1,168.5,28.8,165,28.8z"/>
				<path fill="#2390CC" d="M189.6,25.8h4v14.6c0,3.6,0.2,6,0.6,7.3c0.6,1.9,1.7,3.4,3.3,4.5c1.6,1.1,3.5,1.7,5.8,1.7
					c2.2,0,4.1-0.5,5.7-1.6c1.6-1.1,2.6-2.5,3.2-4.3c0.4-1.2,0.6-3.8,0.6-7.7V25.8h4.1v15.3c0,4.3-0.5,7.5-1.5,9.7
					c-1,2.2-2.5,3.9-4.5,5.1c-2,1.2-4.5,1.8-7.6,1.8c-3,0-5.6-0.6-7.6-1.8c-2-1.2-3.6-3-4.6-5.2c-1-2.2-1.5-5.5-1.5-10V25.8z"/>
				<path fill="#2390CC" d="M224.6,57l6-42.2h0.7l17.1,34.6l17-34.6h0.7l6.1,42.2H268l-4.2-30.2L248.9,57h-1.1l-15.1-30.4L228.6,57
					H224.6z"/>
				<path fill="#2390CC" d="M306,46.6l3.4,1.8c-1.1,2.2-2.4,3.9-3.8,5.3c-1.5,1.3-3.1,2.4-4.9,3.1c-1.8,0.7-3.9,1-6.2,1
					c-5.1,0-9.1-1.7-11.9-5c-2.9-3.3-4.3-7.1-4.3-11.3c0-4,1.2-7.5,3.6-10.6c3.1-3.9,7.2-5.9,12.4-5.9c5.3,0,9.6,2,12.7,6
					c2.3,2.8,3.4,6.4,3.4,10.7h-28.1c0.1,3.6,1.2,6.6,3.5,8.9c2.2,2.3,5,3.5,8.3,3.5c1.6,0,3.1-0.3,4.6-0.8c1.5-0.5,2.8-1.3,3.8-2.2
					C303.7,50.1,304.8,48.7,306,46.6z M306,38.2c-0.5-2.1-1.3-3.9-2.3-5.1c-1-1.3-2.4-2.3-4.1-3.1c-1.7-0.8-3.5-1.2-5.3-1.2
					c-3.1,0-5.7,1-7.9,3c-1.6,1.4-2.8,3.6-3.6,6.5H306V38.2z"/>
				<path fill="#2390CC" d="M349.1,13.7V57h-4v-5.4c-1.7,2-3.6,3.6-5.7,4.6s-4.4,1.5-6.9,1.5c-4.4,0-8.2-1.6-11.3-4.8
					s-4.7-7.1-4.7-11.7c0-4.5,1.6-8.3,4.7-11.5c3.2-3.2,6.9-4.8,11.4-4.8c2.6,0,4.9,0.5,7,1.6s3.9,2.7,5.5,4.9V13.7H349.1z
					 M333,28.8c-2.2,0-4.3,0.5-6.2,1.6c-1.9,1.1-3.4,2.6-4.5,4.6c-1.1,2-1.7,4.1-1.7,6.3s0.6,4.3,1.7,6.3s2.6,3.6,4.5,4.7
					c1.9,1.1,3.9,1.7,6.1,1.7c2.2,0,4.3-0.6,6.2-1.7c2-1.1,3.5-2.6,4.5-4.5c1.1-1.9,1.6-4,1.6-6.4c0-3.6-1.2-6.6-3.6-9
					C339.4,30.1,336.5,28.8,333,28.8z"/>
				<path fill="#2390CC" d="M359.6,12.9c0.9,0,1.7,0.3,2.3,1c0.6,0.7,1,1.4,1,2.4c0,0.9-0.3,1.7-1,2.3c-0.6,0.6-1.4,1-2.3,1
					c-0.9,0-1.7-0.3-2.3-1c-0.6-0.6-1-1.4-1-2.3c0-0.9,0.3-1.7,1-2.4C357.9,13.3,358.7,12.9,359.6,12.9z M357.6,25.8h4V57h-4V25.8z"
					/>
				<path fill="#2390CC" d="M401,25.8V57h-4v-5.4c-1.7,2-3.6,3.6-5.7,4.6c-2.1,1-4.4,1.5-6.9,1.5c-4.4,0-8.2-1.6-11.3-4.8
					c-3.1-3.2-4.7-7.1-4.7-11.7c0-4.5,1.6-8.3,4.7-11.5c3.2-3.2,6.9-4.8,11.4-4.8c2.6,0,4.9,0.5,7,1.6s3.9,2.7,5.5,4.9v-5.7h4V25.8z
					 M385,28.8c-2.2,0-4.3,0.5-6.2,1.6c-1.9,1.1-3.4,2.6-4.5,4.6c-1.1,2-1.7,4.1-1.7,6.3s0.6,4.3,1.7,6.3s2.6,3.6,4.5,4.7
					c1.9,1.1,3.9,1.7,6.1,1.7s4.3-0.6,6.2-1.7c2-1.1,3.5-2.6,4.5-4.5c1.1-1.9,1.6-4,1.6-6.4c0-3.6-1.2-6.6-3.6-9
					C391.4,30.1,388.4,28.8,385,28.8z"/>
			</g>
		</g>
	</g>
</g>
</svg>
